<svg id="icons" enable-background="new 0 0 64 64" height="512" viewBox="0 0 64 64" width="512" xmlns="http://www.w3.org/2000/svg"><g><g><g><path d="m25.996 30.998h-9.001c-.553 0-1-.448-1-1v-19.999c0-.552.447-1 1-1h9.001c.553 0 1 .448 1 1v19.999c0 .552-.447 1-1 1zm-8.001-2h7.001v-17.999h-7.001z"/></g><g><path d="m26.996 13.999h-11.001c-.553 0-1-.448-1-1s.447-1 1-1h11.001c.553 0 1 .448 1 1s-.447 1-1 1z"/></g><g><path d="m26.996 16.999h-11.001c-.553 0-1-.448-1-1s.447-1 1-1h11.001c.553 0 1 .448 1 1s-.447 1-1 1z"/></g><g><path d="m26.996 19.999h-11.001c-.553 0-1-.448-1-1s.447-1 1-1h11.001c.553 0 1 .448 1 1s-.447 1-1 1z"/></g><g><path d="m23.996 10.999h-5.001c-.553 0-1-.448-1-1v-4.997c0-.552.447-1 1-1h5.001c.553 0 1 .448 1 1v4.997c0 .552-.447 1-1 1zm-4.001-2h3.001v-2.997h-3.001z"/></g><g><path d="m24.996 6h-7.001c-.553 0-1-.448-1-1v-4c0-.552.447-1 1-1h7.001c.553 0 1 .448 1 1v4c0 .552-.447 1-1 1zm-6.001-2h5.001v-2h-5.001z"/></g><g><path d="m28.996 39h-15.001c-.553 0-1-.447-1-1v-5c0-.552.447-1 1-1h15.001c.553 0 1 .448 1 1v5c0 .553-.447 1-1 1zm-14.001-2h13.001v-3h-13.001z"/></g><g><path d="m28.996 44.997h-15.001c-.553 0-1-.447-1-1v-2.997c0-.553.447-1 1-1h15.001c.553 0 1 .447 1 1v2.997c0 .553-.447 1-1 1zm-14.001-2h13.001v-.997h-13.001z"/></g><g><path d="m26.996 34h-11.001c-.553 0-1-.447-1-1v-3.002c0-.552.447-1 1-1h11.001c.553 0 1 .448 1 1v3.002c0 .553-.447 1-1 1zm-10.001-2h9.001v-1.002h-9.001z"/></g><g><path d="m26.996 42h-11.001c-.553 0-1-.447-1-1v-3.003c0-.553.447-1 1-1h11.001c.553 0 1 .447 1 1v3.003c0 .553-.447 1-1 1zm-10.001-2h9.001v-1.003h-9.001z"/></g><g><path d="m26.996 48.005h-11.001c-.553 0-1-.447-1-1v-3.003c0-.553.447-1 1-1h11.001c.553 0 1 .447 1 1v3.003c0 .553-.447 1-1 1zm-10.001-2h9.001v-1.003h-9.001z"/></g><g><path d="m26.996 60h-11.001c-.553 0-1-.447-1-1v-12.008c0-.553.447-1 1-1h11.001c.553 0 1 .447 1 1v12.008c0 .553-.447 1-1 1zm-10.001-2h9.001v-10.008h-9.001z"/></g><g><path d="m27.995 48.007h-13c-.553 0-1-.447-1-1s.447-1 1-1h13c.553 0 1 .447 1 1s-.447 1-1 1z"/></g><g><path d="m27.995 51.002h-13c-.553 0-1-.447-1-1s.447-1 1-1h13c.553 0 1 .447 1 1s-.447 1-1 1z"/></g><g><path d="m27.995 54.002h-13c-.553 0-1-.447-1-1s.447-1 1-1h13c.553 0 1 .447 1 1s-.447 1-1 1z"/></g><g><path d="m27.995 57.002h-13c-.553 0-1-.447-1-1s.447-1 1-1h13c.553 0 1 .447 1 1s-.447 1-1 1z"/></g><g><path d="m22.996 64c-.553 0-1-.447-1-1s.447-1 1-1c1.654 0 3-1.346 3-3 0-.553.447-1 1-1s1 .447 1 1c0 2.757-2.243 5-5 5z"/></g><g><path d="m22.996 64h-1.501c-.553 0-1-.447-1-1s.447-1 1-1h1.501c.553 0 1 .447 1 1s-.447 1-1 1z"/></g><g><path d="m21.495 61.998c-.553 0-1-.447-1-1v-2c0-.553.447-1 1-1s1 .447 1 1v2c0 .553-.447 1-1 1z"/></g></g><g><g><path d="m47.005 30.998h-9.001c-.553 0-1-.448-1-1v-19.999c0-.552.447-1 1-1h9.001c.553 0 1 .448 1 1v19.999c0 .552-.447 1-1 1zm-8.001-2h7.001v-17.999h-7.001z"/></g><g><path d="m48.005 13.999h-11.001c-.553 0-1-.448-1-1s.447-1 1-1h11.001c.553 0 1 .448 1 1s-.447 1-1 1z"/></g><g><path d="m48.005 16.999h-11.001c-.553 0-1-.448-1-1s.447-1 1-1h11.001c.553 0 1 .448 1 1s-.447 1-1 1z"/></g><g><path d="m48.005 19.999h-11.001c-.553 0-1-.448-1-1s.447-1 1-1h11.001c.553 0 1 .448 1 1s-.447 1-1 1z"/></g><g><path d="m45.005 10.999h-5.001c-.553 0-1-.448-1-1v-4.997c0-.552.447-1 1-1h5.001c.553 0 1 .448 1 1v4.997c0 .552-.447 1-1 1zm-4.001-2h3.001v-2.997h-3.001z"/></g><g><path d="m46.005 6h-7.001c-.553 0-1-.448-1-1v-4c0-.552.447-1 1-1h7.001c.553 0 1 .448 1 1v4c0 .552-.447 1-1 1zm-6.001-2h5.001v-2h-5.001z"/></g><g><path d="m50.005 39h-15.001c-.553 0-1-.447-1-1v-5c0-.552.447-1 1-1h15.001c.553 0 1 .448 1 1v5c0 .553-.447 1-1 1zm-14.001-2h13.001v-3h-13.001z"/></g><g><path d="m50.005 44.997h-15.001c-.553 0-1-.447-1-1v-2.997c0-.553.447-1 1-1h15.001c.553 0 1 .447 1 1v2.997c0 .553-.447 1-1 1zm-14.001-2h13.001v-.997h-13.001z"/></g><g><path d="m48.005 34h-11.001c-.553 0-1-.447-1-1v-3.002c0-.552.447-1 1-1h11.001c.553 0 1 .448 1 1v3.002c0 .553-.447 1-1 1zm-10.001-2h9.001v-1.002h-9.001z"/></g><g><path d="m48.005 42h-11.001c-.553 0-1-.447-1-1v-3.003c0-.553.447-1 1-1h11.001c.553 0 1 .447 1 1v3.003c0 .553-.447 1-1 1zm-10.001-2h9.001v-1.003h-9.001z"/></g><g><path d="m48.005 48.005h-11.001c-.553 0-1-.447-1-1v-3.003c0-.553.447-1 1-1h11.001c.553 0 1 .447 1 1v3.003c0 .553-.447 1-1 1zm-10.001-2h9.001v-1.003h-9.001z"/></g><g><path d="m48.005 60h-11.001c-.553 0-1-.447-1-1v-12.008c0-.553.447-1 1-1h11.001c.553 0 1 .447 1 1v12.008c0 .553-.447 1-1 1zm-10.001-2h9.001v-10.008h-9.001z"/></g><g><path d="m49.004 48.007h-13c-.553 0-1-.447-1-1s.447-1 1-1h13c.553 0 1 .447 1 1s-.447 1-1 1z"/></g><g><path d="m49.004 51.002h-13c-.553 0-1-.447-1-1s.447-1 1-1h13c.553 0 1 .447 1 1s-.447 1-1 1z"/></g><g><path d="m49.004 54.002h-13c-.553 0-1-.447-1-1s.447-1 1-1h13c.553 0 1 .447 1 1s-.447 1-1 1z"/></g><g><path d="m49.004 57.002h-13c-.553 0-1-.447-1-1s.447-1 1-1h13c.553 0 1 .447 1 1s-.447 1-1 1z"/></g><g><path d="m44.005 64c-.553 0-1-.447-1-1s.447-1 1-1c1.654 0 3-1.346 3-3 0-.553.447-1 1-1s1 .447 1 1c0 2.757-2.243 5-5 5z"/></g><g><path d="m44.005 64h-1.501c-.553 0-1-.447-1-1s.447-1 1-1h1.501c.553 0 1 .447 1 1s-.447 1-1 1z"/></g><g><path d="m42.504 61.998c-.553 0-1-.447-1-1v-2c0-.553.447-1 1-1s1 .447 1 1v2c0 .553-.447 1-1 1z"/></g></g></g></svg>