<svg id="Layer_1" enable-background="new 0 0 496 496" height="512" viewBox="0 0 496 496" width="512" xmlns="http://www.w3.org/2000/svg"><path d="m492.28 106.487c3.748 10.472-3.905 21.513-15.027 21.513h-458.506c-11.123 0-18.776-11.041-15.027-21.513 8.855-24.74 32.534-42.487 60.28-42.487h368c27.746 0 51.425 17.747 60.28 42.487zm-12.28 53.513h-464c-8.837 0-16 7.163-16 16v8c0 8.837 7.163 16 16 16h464c8.837 0 16-7.163 16-16v-8c0-8.837-7.163-16-16-16zm-464 72h464c8.837 0 16 7.163 16 16v120c0 35.346-28.654 64-64 64h-368c-35.346 0-64-28.654-64-64v-120c0-8.837 7.163-16 16-16zm152 72c0-22.056-17.944-40-40-40h-16c-22.056 0-40 17.944-40 40v16c0 22.056 17.944 40 40 40h16c22.056 0 40-17.944 40-40zm184 40c0-8.837-7.163-16-16-16h-72c-8.837 0-16 7.163-16 16s7.163 16 16 16h72c8.837 0 16-7.163 16-16zm72-64c0-8.837-7.163-16-16-16h-144c-8.837 0-16 7.163-16 16s7.163 16 16 16h144c8.837 0 16-7.163 16-16z"/></svg>