<svg height="464pt" viewBox="-112 0 464 464" width="464pt" xmlns="http://www.w3.org/2000/svg"><path d="m40 464h160c13.015625 0 24.488281-6.34375 31.792969-16h-223.585938c7.304688 9.65625 18.777344 16 31.792969 16zm0 0"/><path d="m32 400h176v-192h-176zm38.425781-93.816406 49.574219-90.886719 49.574219 90.878906c4.210937 7.71875 6.425781 16.425781 6.425781 25.199219 0 29.015625-23.609375 52.625-52.625 52.625h-6.75c-29.015625 0-52.625-23.609375-52.625-52.625 0-8.773438 2.214844-17.480469 6.425781-25.191406zm0 0"/><path d="m116.625 368h6.75c20.191406 0 36.625-16.433594 36.625-36.625 0-6.109375-1.542969-12.167969-4.472656-17.535156l-35.527344-65.136719-35.527344 65.136719c-2.929687 5.367187-4.472656 11.433594-4.472656 17.535156 0 20.199219 16.433594 36.625 36.625 36.625zm0 0"/><path d="m0 424c0 2.734375.28125 5.414062.808594 8h238.382812c.527344-2.585938.808594-5.265625.808594-8v-248h-240zm16-232h208v224h-208zm0 0"/><path d="m152 32h64c4.414062 0 8-3.585938 8-8v-16c0-4.414062-3.585938-8-8-8h-64c-4.414062 0-8 3.585938-8 8v16c0 4.414062 3.585938 8 8 8zm0 0"/><path d="m235.777344 129.449219-27.777344-55.554688v-25.894531h-48v29.414062l-134.855469 53.945313c-12.570312 5.023437-21.367187 15.824219-24.136719 28.640625h238.992188v-12.671875c0-6.175781-1.464844-12.359375-4.222656-17.878906zm0 0"/></svg>