<svg height="464pt" viewBox="-96 0 464 464" width="464pt" xmlns="http://www.w3.org/2000/svg"><path d="m184 8c0-4.414062-3.585938-8-8-8h-80c-4.414062 0-8 3.585938-8 8v8h96zm0 0"/><path d="m32 64v160h48v-144h16v144h48v-144h16v144h48v-144h16v144h16v-160h-48v144h-16v-144h-48v144h-16v-144h-48v144h-16v-144zm0 0"/><path d="m256 48v-16h-240.015625l.015625 16zm0 0"/><path d="m16 240h240v80h-240zm0 0"/><path d="m0 336h272v48h-272zm0 0"/><path d="m43.3125 432h185.375l32-32h-249.375zm0 0"/><path d="m64 448h144v16h-144zm0 0"/></svg>