<svg id="Layer_1" enable-background="new 0 0 512.02 512.02" height="512" viewBox="0 0 512.02 512.02" width="512" xmlns="http://www.w3.org/2000/svg"><g><path d="m451.576 311.719c33.328 0 60.443-27.115 60.443-60.443v-28.87h-38.306c-11.765 0-23.143 3.437-32.891 9.791-1.088-5.996-2.452-11.92-4.107-17.747l11.556-6.65c13.982-8.072 23.983-21.106 28.162-36.702 4.179-15.595 2.034-31.884-6.038-45.866l-14.435-25.002-33.173 19.153c-10.19 5.883-18.321 14.548-23.576 24.924-4.165-4.894-8.603-9.588-13.293-14.071l5.569-9.645c8.072-13.982 10.217-30.271 6.038-45.866s-14.18-28.629-28.162-36.702l-25.002-14.435-19.153 33.173c-8.072 13.982-10.217 30.271-6.038 45.866s14.18 28.629 28.162 36.702l10.808 6.24c35.427 30.033 55.728 73.823 55.728 120.356 0 87.041-70.813 157.854-157.855 157.854-87.041 0-157.854-70.813-157.854-157.854 0-46.532 20.302-90.323 55.728-120.356l10.808-6.24c13.982-8.072 23.983-21.107 28.162-36.702 4.178-15.595 2.033-31.884-6.039-45.866l-19.152-33.174-25.002 14.436c-13.982 8.072-23.983 21.106-28.162 36.702-4.179 15.595-2.034 31.884 6.038 45.866l5.569 9.645c-4.692 4.484-9.131 9.18-13.297 14.076-5.255-10.379-13.386-19.046-23.578-24.929l-33.174-19.153-14.436 25.002c-8.072 13.982-10.217 30.271-6.038 45.866s14.18 28.629 28.18 36.712l11.544 6.643c-1.655 5.828-3.019 11.752-4.107 17.748-9.749-6.357-21.13-9.795-32.897-9.795h-38.306v28.87c0 33.329 27.115 60.443 60.464 60.443l13.345-.019c1.491 5.934 3.267 11.756 5.309 17.453-11.635-.648-23.216 2.055-33.405 7.937l-33.175 19.153 14.437 25.002c8.072 13.982 21.106 23.983 36.702 28.162 5.206 1.395 10.487 2.085 15.737 2.085 10.476 0 20.82-2.75 30.146-8.134l11.645-6.746c4.235 4.368 8.68 8.53 13.318 12.472-10.411 5.253-19.105 13.399-25.004 23.615l-19.152 33.174 25.002 14.435c9.314 5.377 19.649 8.124 30.123 8.124 5.25 0 10.536-.69 15.743-2.086 15.595-4.179 28.629-14.18 36.712-28.18l6.642-11.54c16.349 4.659 33.6 7.155 51.423 7.155 17.822 0 35.071-2.495 51.418-7.153l6.651 11.557c8.072 13.982 21.106 23.983 36.701 28.162 5.208 1.396 10.492 2.086 15.743 2.086 10.473 0 20.81-2.747 30.123-8.124l25.002-14.435-19.152-33.174c-5.898-10.214-14.59-18.359-25-23.613 4.639-3.942 9.084-8.104 13.32-12.472l11.658 6.755c9.314 5.377 19.649 8.124 30.124 8.124 5.249 0 10.535-.69 15.742-2.085 15.595-4.179 28.629-14.18 36.701-28.162l14.437-25.002-33.175-19.153c-10.188-5.882-21.765-8.584-33.398-7.938 2.042-5.696 3.817-11.518 5.309-17.452z"/><path d="m197.153 293.537-13.767 80.828 72.617-38.072 72.617 38.072-13.768-80.828 58.648-57.298-81.126-11.883-36.371-73.485-36.371 73.484-81.127 11.883z"/></g></svg>