<svg height="512" viewBox="0 0 192 192" width="512" xmlns="http://www.w3.org/2000/svg"><g id="_16-filter" data-name="16-filter"><g id="Glyph"><path d="m152 0h-112a8 8 0 0 0 -8 8v16h128v-16a8 8 0 0 0 -8-8z"/><path d="m34.343 37.657 34.343 34.343h54.628l34.343-34.343a7.982 7.982 0 0 0 2.324-5.657h-127.962a7.982 7.982 0 0 0 2.324 5.657z"/><path d="m88 128h16a8 8 0 0 0 7.891-6.685l6.886-41.315h-45.554l6.886 41.315a8 8 0 0 0 7.891 6.685z"/><path d="m101.5 138.193a8 8 0 0 0 -11.006 0c-4.336 4.113-18.494 18.415-18.494 29.807a24 24 0 0 0 48 0c0-11.392-14.158-25.694-18.5-29.807zm10.5 29.807a8 8 0 1 1 -8-8 8 8 0 0 1 8 8z"/></g></g></svg>