<svg height="640pt" viewBox="-20 -140 640 640" width="640pt" xmlns="http://www.w3.org/2000/svg"><path d="m380 2c0-5.523438-4.476562-10-10-10h-360c-5.523438 0-10 4.476562-10 10v200h380zm0 0"/><path d="m588 161-95.558594-95.558594c-8.96875-8.046875-20.414062-12.785156-32.441406-13.441406h-60v170h-400v60c0 5.523438 4.476562 10 10 10h70c0 33.132812 26.867188 60 60 60s60-26.867188 60-60h220c0 33.132812 26.867188 60 60 60s60-26.867188 60-60h20c22.089844 0 40-17.910156 40-40v-61.898438c-.023438-10.898437-4.335938-21.351562-12-29.101562zm-408.476562 137.320312c-3.25 20.1875-21.199219 34.679688-41.617188 33.597657-20.425781-1.085938-36.738281-17.398438-37.824219-37.824219-1.082031-20.417969 13.410157-38.367188 33.597657-41.617188 12.652343-1.941406 25.480468 2.257813 34.53125 11.3125 9.054687 9.050782 13.253906 21.878907 11.3125 34.53125zm340 0c-3.25 20.1875-21.199219 34.679688-41.617188 33.597657-20.425781-1.085938-36.738281-17.398438-37.824219-37.824219-1.082031-20.417969 13.410157-38.367188 33.597657-41.617188 12.652343-1.941406 25.480468 2.257813 34.53125 11.3125 9.054687 9.050782 13.253906 21.878907 11.3125 34.53125zm-69.523438-136.320312c-5.453125-.160156-9.839844-4.546875-10-10v-80h20c6.6875.46875 13.042969 3.101562 18.101562 7.5l82.597657 82.5zm0 0"/></svg>